<svg width="49" height="54" viewBox="0 0 49 54" fill="none" xmlns="http://www.w3.org/2000/svg">
    <g clip-path="url(#ruop4fah6a)" filter="url(#7jio4pindb)">
        <path d="m34.796 13.377.003.08v22.981a1.287 1.287 0 0 1-1.349 1.283l-17.221-.77a1.287 1.287 0 0 1-1.232-1.235l-.795-21.09a1.287 1.287 0 0 1 1.21-1.33l14.122-.879-.123 2.896a.191.191 0 0 0 .021.096l.018.028c.064.084.185.1.27.037l1.13-.853.953.748a.193.193 0 0 0 .312-.157l-.107-2.949 1.42-.088a1.288 1.288 0 0 1 1.368 1.202zM24.89 16.52c-3.359 0-5.24 1.816-5.24 4.54 0 4.746 6.43 4.837 6.43 7.425 0 .726-.357 1.157-1.143 1.157-1.024 0-1.429-.52-1.381-2.291 0-.384-3.907-.504-4.026 0-.303 4.291 2.382 5.529 5.455 5.529 2.978 0 5.312-1.58 5.312-4.44 0-5.086-6.527-4.95-6.527-7.47 0-1.022.763-1.158 1.215-1.158.476 0 1.334.084 1.263 1.99 0 .5 3.38.261 3.835-.09 0-3.403-1.835-5.192-5.193-5.192z" fill="#fff"/>
    </g>
    <defs>
        <clipPath id="ruop4fah6a">
            <path fill="#fff" transform="translate(13.792 11.76) scale(1.01439)" d="M0 0h21v26H0z"/>
        </clipPath>
        <filter id="7jio4pindb" x="-.41" y="-.412" width="49.705" height="54.777" filterUnits="userSpaceOnUse" color-interpolation-filters="sRGB">
            <feFlood flood-opacity="0" result="BackgroundImageFix"/>
            <feColorMatrix in="SourceAlpha" values="0 0 0 0 0 0 0 0 0 0 0 0 0 0 0 0 0 0 127 0" result="hardAlpha"/>
            <feOffset dy="2"/>
            <feGaussianBlur stdDeviation="7"/>
            <feColorMatrix values="0 0 0 0 0.509804 0 0 0 0 0.92549 0 0 0 0 0.223529 0 0 0 0.6 0"/>
            <feBlend in2="BackgroundImageFix" result="effect1_dropShadow_0_171"/>
            <feBlend in="SourceGraphic" in2="effect1_dropShadow_0_171" result="shape"/>
        </filter>
    </defs>
</svg>
