<svg width="53" height="54" viewBox="0 0 53 54" fill="none" xmlns="http://www.w3.org/2000/svg">
    <g clip-path="url(#g4ga12i9aa)" filter="url(#0teioftgcb)">
        <path d="M28.61 37.33c-.657.83-1.987.375-2.002-.683l-.232-15.475H36.75c1.879 0 2.927 2.177 1.758 3.653L28.61 37.33z" fill="url(#8mwbpf7jbc)"/>
        <path d="M28.61 37.33c-.657.83-1.987.375-2.002-.683l-.232-15.475H36.75c1.879 0 2.927 2.177 1.758 3.653L28.61 37.33z" fill="url(#dlg5wrqezd)" fill-opacity=".2"/>
        <path d="M24.39 12.43c.657-.83 1.987-.375 2.003.683l.1 15.475H16.252c-1.879 0-2.927-2.177-1.758-3.653L24.39 12.43z" fill="#fff"/>
    </g>
    <defs>
        <linearGradient id="8mwbpf7jbc" x1="26.376" y1="24.603" x2="35.604" y2="28.461" gradientUnits="userSpaceOnUse">
            <stop stop-color="#979797"/>
            <stop offset="1" stop-color="#fff"/>
        </linearGradient>
        <linearGradient id="dlg5wrqezd" x1="22.289" y1="18.989" x2="26.514" y2="26.918" gradientUnits="userSpaceOnUse">
            <stop/>
            <stop offset="1" stop-opacity="0"/>
        </linearGradient>
        <clipPath id="g4ga12i9aa">
            <path fill="#fff" transform="translate(13.996 11.953)" d="M0 0h25v26H0z"/>
        </clipPath>
        <filter id="0teioftgcb" x="-.006" y="-.049" width="53.006" height="54.006" filterUnits="userSpaceOnUse" color-interpolation-filters="sRGB">
            <feFlood flood-opacity="0" result="BackgroundImageFix"/>
            <feColorMatrix in="SourceAlpha" values="0 0 0 0 0 0 0 0 0 0 0 0 0 0 0 0 0 0 127 0" result="hardAlpha"/>
            <feOffset dy="2"/>
            <feGaussianBlur stdDeviation="7"/>
            <feColorMatrix values="0 0 0 0 0.509804 0 0 0 0 0.92549 0 0 0 0 0.223529 0 0 0 0.6 0"/>
            <feBlend in2="BackgroundImageFix" result="effect1_dropShadow_0_175"/>
            <feBlend in="SourceGraphic" in2="effect1_dropShadow_0_175" result="shape"/>
        </filter>
    </defs>
</svg>
