<svg width="205" height="60" viewBox="0 0 205 60" fill="none" xmlns="http://www.w3.org/2000/svg">
    <g clip-path="url(#4n4dh558sa)">
        <path d="M73.801 44.043a5.56 5.56 0 0 0-1.343-.895 26.216 26.216 0 0 0-1.791-.781c-.506-.19-.941-.37-1.302-.54a4.376 4.376 0 0 1-.909-.555 1.963 1.963 0 0 1-.543-.667 1.945 1.945 0 0 1-.176-.853c0-.625.262-1.084.786-1.378.525-.294 1.14-.44 1.846-.44.813 0 1.51.082 2.09.243.579.161 1.004.316 1.275.468l-.002-2.428-.148-.043a10.993 10.993 0 0 0-.908-.214 15.47 15.47 0 0 0-1.113-.17c-.396-.047-.795-.07-1.192-.07-1.593 0-2.849.382-3.771 1.149-.922.766-1.384 1.804-1.384 3.111 0 .664.109 1.222.326 1.676.218.454.506.843.867 1.165.362.322.791.601 1.29.838.496.236 1.015.469 1.56.696 1.12.474 1.926.9 2.413 1.279.49.379.733.892.733 1.535 0 .625-.25 1.08-.746 1.364-.498.285-1.26.44-2.293.44-1.05-.016-1.77-.08-2.523-.342-.641-.23-1.08-.39-1.384-.512l.001 2.454c.24.083.625.209.976.317.781.225 1.682.314 2.93.314 1.79 0 3.17-.35 4.137-1.052.968-.7 1.452-1.734 1.452-3.097 0-.701-.1-1.294-.3-1.776a3.43 3.43 0 0 0-.854-1.236zm30.94 4.637c-.325-.115-.61-.386-.827-.661-.217-.276-.38-.653-.488-1.136-.109-.484-.163-1.095-.163-1.834v-6.82h4.2v-2.216h-4.2l.004-4.645-2.527.621v13.089c0 .985.076 1.851.23 2.6.155.748.415 1.402.795 1.913.381.512.859.931 1.483 1.188.686.301 2.409.657 4.218.224v-2.32c-1.448.35-2.399.11-2.725-.003zm-7.438-12.863a7.516 7.516 0 0 0-.746-.042c-1.103 0-2.098.099-2.984.298-.886.199-1.628.411-2.225.64v14.15h2.523V38.446c.143-.038.448-.108.907-.213a6.37 6.37 0 0 1 1.398-.156c.723 0 1.316.053 1.777.156.462.104.79.195.99.27v-2.417a30.203 30.203 0 0 0-.814-.154c-.27-.048-.545-.087-.826-.115zm-11.51 11.622c-.717.975-1.688 1.462-2.917 1.462-1.23 0-2.202-.488-2.917-1.462-.715-.975-1.071-2.297-1.071-3.964 0-1.667.356-2.989 1.071-3.964.715-.975 1.687-1.463 2.917-1.463 1.23 0 2.202.488 2.916 1.463.715.975 1.07 2.297 1.07 3.964.002 1.667-.355 2.988-1.07 3.964zm1.844-9.59a6.052 6.052 0 0 0-2.104-1.577 6.35 6.35 0 0 0-2.658-.555c-.96 0-1.846.183-2.659.555a6.032 6.032 0 0 0-2.102 1.576c-.588.682-1.045 1.502-1.37 2.459-.328.956-.49 2.012-.49 3.167 0 1.176.162 2.237.49 3.182.325.948.781 1.762 1.37 2.444a6.031 6.031 0 0 0 2.102 1.577c.814.37 1.7.555 2.659.555.959 0 1.845-.184 2.658-.555a6.06 6.06 0 0 0 2.104-1.577c.588-.682 1.044-1.497 1.37-2.444.326-.947.488-2.008.488-3.182 0-1.154-.162-2.211-.488-3.167-.326-.957-.782-1.776-1.37-2.459zM118.033 31.225c-.41 0-.758.141-1.042.423-.289.284-.43.666-.43 1.145 0 .48.141.861.43 1.144.286.284.634.424 1.042.424.41 0 .758-.141 1.044-.424.286-.283.429-.664.429-1.144 0-.479-.143-.861-.429-1.145a1.428 1.428 0 0 0-1.044-.423zm19.069 17.71c-.327-.114-.61-.385-.827-.66-.216-.276-.38-.654-.488-1.137-.109-.483-.163-1.094-.163-1.833v-6.82h4.201V36.27h-4.201v-4.574l-2.523.453v13.185c0 .985.076 1.85.23 2.6.155.748.415 1.401.795 1.913.382.511.859.931 1.484 1.187.686.302 2.409.658 4.218.225v-2.32c-1.449.35-2.401.11-2.726-.003zm-6.801-4.637a5.539 5.539 0 0 0-1.343-.894 25.88 25.88 0 0 0-1.791-.782c-.506-.189-.94-.37-1.302-.54a4.397 4.397 0 0 1-.909-.554 1.95 1.95 0 0 1-.542-.668 1.95 1.95 0 0 1-.176-.853c0-.625.262-1.084.787-1.378.524-.293 1.139-.439 1.846-.439.814 0 1.51.081 2.09.242.578.161 1.003.316 1.275.468l-.002-2.426-.148-.047a10.944 10.944 0 0 0-.908-.213 15.41 15.41 0 0 0-1.112-.17c-.397-.048-.797-.071-1.192-.071-1.594 0-2.849.383-3.772 1.15-.921.767-1.384 1.805-1.384 3.112 0 .663.108 1.222.327 1.675.217.455.505.843.867 1.165.362.323.791.602 1.289.838.497.237 1.017.47 1.56.697 1.121.474 1.926.9 2.414 1.278.488.38.732.892.732 1.535 0 .625-.248 1.08-.746 1.365-.499.284-1.261.44-2.292.44-1.051-.017-1.771-.08-2.523-.343a48.09 48.09 0 0 1-1.384-.511l.003 2.453c.238.084.623.209.974.317.782.225 1.683.314 2.931.314 1.791 0 3.169-.35 4.137-1.052.967-.7 1.452-1.734 1.452-3.097 0-.7-.101-1.293-.3-1.776a3.493 3.493 0 0 0-.858-1.235zm-13.529 6.82h2.522V36.343h-2.522v14.775zm-4.047-2.529c-.164-.17-.28-.396-.354-.681a4.487 4.487 0 0 1-.109-1.08v-17.29l-2.521.607v17.109c0 1.402.326 2.434.975 3.097.652.663 1.917 1.074 3.664 1.096v-2.262a6.478 6.478 0 0 1-1.004-.212 1.51 1.51 0 0 1-.651-.384zM21.16 42.489 16.31 48.86l-2.108-7.724-7.558-2.641 6.694-4.392.178-8.004 6.245 5.01 2.502-.752.098 12.19-1.202-.058z" fill="#86D7F1"/>
        <path d="M7.527 25.27 6.01 28.974l-2.018-3.458L0 25.218l2.665-2.987-.95-3.889 3.664 1.612 3.405-2.106-.4 3.983 3.054 2.588-3.911.85z" fill="#AFE5F5"/>
        <path d="m21.607 21.19-1.214 2.964-1.614-2.766-3.193-.239 2.13-2.389-.759-3.111 2.931 1.289 2.724-1.685-.32 3.187.293 2.537-.979.213z" fill="#DAF3FA"/>
        <path d="m183.414 42.489 4.848 6.371 2.108-7.724 7.558-2.641-6.694-4.392-.177-8.004-6.245 5.01-2.502-.752-.098 12.19 1.202-.058z" fill="#86D7F1"/>
        <path d="m197.047 25.27 1.516 3.704 2.018-3.458 3.992-.298-2.664-2.987.949-3.889-3.664 1.612-3.405-2.106.399 3.983-3.053 2.588 3.912.85z" fill="#AFE5F5"/>
        <path d="m182.967 21.19 1.213 2.964 1.614-2.766 3.194-.239-2.132-2.389.761-3.111-2.932 1.289-2.724-1.685.32 3.187-.293 2.537.979.213z" fill="#DAF3FA"/>
        <path d="M182.159 0H22.415v24.113h159.744V0z" fill="#86D7F1"/>
        <path d="M182.481 60H22.092V.28h160.389V60zm-159.743-.645h159.098V.925H22.737v58.43z" fill="#86D7F1"/>
        <path d="M61.984 7.489v.982h-2.791v7.656h-1.17V8.471H55.22V7.49h6.764zM64.25 9.924c.446 0 .85.075 1.21.223.359.149.664.36.915.633.251.274.444.604.579.992.134.387.202.82.202 1.298 0 .483-.068.917-.202 1.303a2.807 2.807 0 0 1-.579.988 2.517 2.517 0 0 1-.916.63c-.36.147-.762.22-1.209.22-.446 0-.849-.073-1.208-.22a2.548 2.548 0 0 1-.92-.63 2.817 2.817 0 0 1-.584-.989 3.885 3.885 0 0 1-.205-1.302c0-.477.068-.91.205-1.298.136-.388.331-.719.584-.992.253-.273.56-.484.92-.633.359-.148.762-.223 1.208-.223zm0 5.45c.603 0 1.053-.203 1.35-.607.298-.403.447-.967.447-1.69 0-.728-.149-1.294-.446-1.7-.298-.406-.748-.61-1.35-.61-.306 0-.572.053-.796.157a1.49 1.49 0 0 0-.564.452c-.15.197-.263.44-.338.727a3.897 3.897 0 0 0-.111.973c0 .362.037.686.111.97.075.287.187.527.338.721a1.5 1.5 0 0 0 .564.45c.224.104.49.156.795.156zM68.482 18.195V10.02h.639c.153 0 .25.075.29.223l.09.724c.26-.318.56-.573.895-.766.335-.193.722-.289 1.16-.289.35 0 .667.067.953.202.285.135.528.333.73.597.2.263.355.59.463.98.109.39.163.837.163 1.344 0 .45-.06.869-.181 1.257-.121.387-.294.723-.519 1.006a2.422 2.422 0 0 1-.829.67 2.45 2.45 0 0 1-1.106.244c-.377 0-.7-.063-.967-.187a2.178 2.178 0 0 1-.709-.531v2.7h-1.072zm2.719-7.415c-.35 0-.657.08-.92.241a2.652 2.652 0 0 0-.726.681v2.954c.197.265.413.452.648.56.235.11.497.163.787.163.566 0 1.002-.203 1.308-.609.305-.405.458-.984.458-1.736 0-.398-.035-.74-.106-1.025a2.009 2.009 0 0 0-.304-.702 1.188 1.188 0 0 0-.488-.4 1.632 1.632 0 0 0-.657-.127zM78.916 12.522v3.605h-1.163V7.489h2.442c.546 0 1.018.055 1.416.166.398.11.726.27.986.478.259.21.45.462.575.757.125.295.187.626.187.992 0 .305-.048.59-.144.856a2.262 2.262 0 0 1-.42.714 2.5 2.5 0 0 1-.669.54 3.307 3.307 0 0 1-.895.337c.145.085.274.207.386.368l2.52 3.43H83.1c-.213 0-.37-.082-.47-.247l-2.243-3.087a.655.655 0 0 0-.223-.208.81.81 0 0 0-.362-.063h-.886zm0-.85h1.224c.341 0 .642-.04.9-.123.26-.082.477-.199.652-.35a1.45 1.45 0 0 0 .395-.54c.088-.208.133-.44.133-.692 0-.515-.17-.903-.51-1.164-.34-.26-.845-.392-1.516-.392h-1.278v3.261zM89.712 16.127h-.476a.574.574 0 0 1-.253-.048c-.065-.032-.107-.101-.127-.205l-.12-.567c-.161.145-.318.274-.47.389a2.67 2.67 0 0 1-.483.289 2.505 2.505 0 0 1-.54.178c-.19.04-.402.06-.635.06-.237 0-.46-.033-.666-.1a1.425 1.425 0 0 1-.904-.805 1.771 1.771 0 0 1-.136-.722c0-.242.067-.475.199-.698.133-.224.346-.423.642-.596.296-.174.682-.316 1.16-.427.479-.11 1.063-.166 1.754-.166v-.48c0-.477-.1-.837-.304-1.082-.203-.245-.503-.367-.901-.367-.261 0-.481.033-.66.1a2.49 2.49 0 0 0-.464.222c-.13.083-.243.157-.338.223a.487.487 0 0 1-.28.1.32.32 0 0 1-.19-.058.437.437 0 0 1-.13-.14l-.192-.345a3.481 3.481 0 0 1 1.09-.729 3.37 3.37 0 0 1 1.297-.24c.342 0 .645.055.91.168.265.112.488.269.67.47.18.2.317.444.41.73.092.285.138.598.138.94v3.906zm-2.784-.657a2.032 2.032 0 0 0 .961-.22c.139-.07.271-.156.398-.257.126-.1.25-.215.37-.343v-1.26c-.494 0-.914.032-1.26.094a3.497 3.497 0 0 0-.843.246c-.217.1-.375.22-.474.357a.773.773 0 0 0-.147.461c0 .162.026.302.078.419a.795.795 0 0 0 .211.288c.088.074.193.13.314.163.12.034.25.052.392.052zM93.19 16.223c-.482 0-.852-.134-1.111-.404-.26-.269-.39-.657-.39-1.163v-3.738h-.735a.24.24 0 0 1-.162-.057c-.044-.038-.067-.097-.067-.178v-.428l1-.126.248-1.887a.226.226 0 0 1 .079-.148.25.25 0 0 1 .168-.057h.543v2.103h1.748v.778h-1.748v3.665c0 .257.062.448.186.573a.652.652 0 0 0 .483.186c.112 0 .21-.015.292-.045.082-.03.154-.063.214-.1.06-.035.112-.069.154-.1a.203.203 0 0 1 .112-.044c.056 0 .106.034.15.102l.314.512a1.994 1.994 0 0 1-.67.407c-.26.1-.53.15-.808.15zM98.254 9.924c.366 0 .703.061 1.013.184.31.122.576.3.802.53.224.232.4.517.527.857.127.34.19.726.19 1.16 0 .169-.019.281-.055.338-.036.056-.104.084-.205.084h-4.063c.009.386.06.721.157 1.007.096.285.23.523.398.714.169.191.37.334.603.428.233.094.494.142.783.142a2.3 2.3 0 0 0 .697-.094c.195-.062.362-.13.503-.202.14-.072.258-.14.353-.202a.465.465 0 0 1 .244-.093c.088 0 .157.034.205.102l.301.392c-.133.16-.291.3-.476.419a2.977 2.977 0 0 1-.594.292 4.006 4.006 0 0 1-1.323.23c-.422 0-.811-.072-1.167-.214a2.56 2.56 0 0 1-.922-.627 2.874 2.874 0 0 1-.606-1.022 4.156 4.156 0 0 1-.216-1.399c0-.425.065-.823.195-1.193.13-.37.319-.69.564-.961.245-.272.545-.485.898-.64a2.953 2.953 0 0 1 1.194-.232zm.024.79c-.518 0-.926.15-1.223.45-.298.299-.483.713-.555 1.244h3.321c0-.25-.034-.478-.102-.684a1.527 1.527 0 0 0-.301-.537 1.35 1.35 0 0 0-.486-.35 1.64 1.64 0 0 0-.654-.123zM106.452 16.127c-.153 0-.249-.074-.289-.223l-.096-.742c-.262.318-.56.572-.896.763-.335.19-.72.286-1.154.286-.35 0-.667-.067-.952-.202a1.97 1.97 0 0 1-.73-.593 2.818 2.818 0 0 1-.464-.977 5.05 5.05 0 0 1-.162-1.344c0-.45.06-.87.18-1.257a3.08 3.08 0 0 1 .522-1.01c.227-.285.503-.51.829-.672a2.446 2.446 0 0 1 1.109-.244c.374 0 .693.063.959.19.265.127.502.304.711.533V7.248h1.073v8.88l-.64-.001zm-2.08-.784c.35 0 .656-.08.92-.24.262-.161.505-.389.726-.682v-2.953c-.197-.266-.413-.451-.648-.558a1.874 1.874 0 0 0-.781-.16c-.571 0-1.008.203-1.314.61-.305.405-.458.984-.458 1.735 0 .398.034.739.102 1.022.068.283.169.516.302.7.132.182.295.316.488.4.193.084.414.126.663.126zM118.496 16.127h-.905a.39.39 0 0 1-.253-.079.48.48 0 0 1-.144-.198l-.808-2.086h-3.876l-.808 2.086a.469.469 0 0 1-.144.193.387.387 0 0 1-.254.084h-.904l3.454-8.638h1.188l3.454 8.638zm-5.661-3.207h3.226l-1.357-3.514a6.598 6.598 0 0 1-.259-.814c-.045.165-.087.316-.129.455-.042.138-.084.26-.124.365l-1.357 3.508zM121.474 9.918c.265 0 .513.029.744.087.231.059.441.144.63.257h1.658v.397c0 .133-.085.217-.253.253l-.694.097c.137.261.205.553.205.874 0 .298-.057.568-.171.811-.114.243-.274.45-.477.624a2.14 2.14 0 0 1-.723.398 2.902 2.902 0 0 1-.919.138c-.286 0-.555-.034-.808-.102a1.031 1.031 0 0 0-.292.268.497.497 0 0 0-.1.28c0 .15.059.263.175.34.117.077.271.132.464.166.193.033.412.05.657.05h.751c.255 0 .505.022.75.066.245.045.464.118.657.22.193.102.348.242.464.421.116.18.175.411.175.696 0 .264-.065.52-.196.769-.13.248-.318.469-.563.662a2.9 2.9 0 0 1-.898.464 3.85 3.85 0 0 1-1.2.174c-.446 0-.837-.044-1.172-.133a2.755 2.755 0 0 1-.836-.356 1.553 1.553 0 0 1-.497-.516 1.22 1.22 0 0 1-.166-.613c0-.301.096-.558.287-.769.191-.21.453-.38.786-.504a1.08 1.08 0 0 1-.413-.322c-.102-.134-.153-.314-.153-.539 0-.088.016-.18.048-.274.032-.094.081-.187.147-.28a1.58 1.58 0 0 1 .582-.487 1.893 1.893 0 0 1-.708-.672 1.837 1.837 0 0 1-.256-.98 1.8 1.8 0 0 1 .651-1.432c.204-.17.449-.302.732-.394a2.98 2.98 0 0 1 .932-.139zm1.904 6.518a.543.543 0 0 0-.126-.375.817.817 0 0 0-.344-.218 2.445 2.445 0 0 0-.5-.114 4.645 4.645 0 0 0-.597-.036h-.639c-.217 0-.423-.027-.621-.082a1.755 1.755 0 0 0-.557.399.804.804 0 0 0-.109.944c.07.12.178.222.322.308.145.087.327.155.546.206.219.05.477.075.775.075.289 0 .548-.026.777-.08.229-.053.423-.129.582-.227.158-.099.28-.216.364-.35a.826.826 0 0 0 .127-.45zm-1.904-3.293c.217 0 .409-.03.575-.09.167-.06.306-.145.419-.254.113-.108.197-.238.253-.388.057-.151.085-.317.085-.498 0-.373-.114-.67-.341-.892-.227-.221-.558-.332-.991-.332-.43 0-.759.111-.986.332-.227.221-.341.518-.341.892 0 .181.029.347.088.498.058.15.143.28.256.389.112.108.251.192.416.252.165.06.354.09.567.09zM127.996 9.924c.366 0 .703.061 1.013.184.309.122.576.3.802.53.224.232.4.517.527.857.127.34.19.726.19 1.16 0 .169-.019.281-.054.338-.037.056-.105.084-.206.084h-4.062c.008.386.06.721.156 1.007.097.285.229.523.398.714.169.191.37.334.602.428.234.094.495.142.784.142.27 0 .502-.032.696-.094.195-.062.363-.13.504-.202.141-.072.258-.14.353-.202a.464.464 0 0 1 .244-.093c.088 0 .157.034.205.102l.301.392c-.132.16-.291.3-.476.419a2.97 2.97 0 0 1-.594.292 4.002 4.002 0 0 1-1.323.23c-.422 0-.81-.072-1.166-.214a2.554 2.554 0 0 1-.922-.627 2.883 2.883 0 0 1-.606-1.022 4.146 4.146 0 0 1-.217-1.399c0-.425.065-.823.196-1.193a2.8 2.8 0 0 1 .563-.961c.245-.272.545-.485.898-.64a2.956 2.956 0 0 1 1.194-.232zm.024.79c-.518 0-.926.15-1.224.45-.297.299-.482.713-.554 1.244h3.321c0-.25-.034-.478-.102-.684a1.53 1.53 0 0 0-.301-.537 1.353 1.353 0 0 0-.486-.35 1.639 1.639 0 0 0-.654-.123zM131.896 16.127V10.02h.639c.153 0 .249.075.289.223l.084.663a3.45 3.45 0 0 1 .889-.71 2.314 2.314 0 0 1 1.136-.272c.334 0 .628.055.884.166.255.11.467.267.639.47.17.203.3.447.388.732.088.286.133.601.133.947v3.888h-1.073V12.24c0-.463-.105-.821-.317-1.076-.211-.256-.533-.383-.967-.383-.317 0-.614.076-.889.229-.276.153-.53.36-.763.62v4.498h-1.072zM142.765 11.105a.492.492 0 0 1-.097.103.227.227 0 0 1-.139.036.345.345 0 0 1-.196-.075 2.794 2.794 0 0 0-.268-.166 1.863 1.863 0 0 0-.964-.241c-.298 0-.561.053-.79.16-.229.106-.421.26-.575.46a2.076 2.076 0 0 0-.35.73 3.59 3.59 0 0 0-.118.959c0 .37.042.698.127.985.084.288.203.529.356.724.153.195.339.343.557.446.22.102.465.154.739.154.261 0 .476-.032.645-.094a1.96 1.96 0 0 0 .422-.208c.113-.076.205-.146.277-.208a.337.337 0 0 1 .217-.093c.093 0 .161.034.205.102l.302.392a2.318 2.318 0 0 1-.995.714 3.518 3.518 0 0 1-1.26.226c-.382 0-.736-.07-1.064-.21a2.427 2.427 0 0 1-.853-.613 2.894 2.894 0 0 1-.569-.985 3.953 3.953 0 0 1-.209-1.333c0-.454.064-.873.19-1.26.127-.385.312-.718.555-.997.243-.28.544-.497.901-.654a3.037 3.037 0 0 1 1.23-.235c.426 0 .804.07 1.133.208.33.139.622.334.875.588l-.284.385zM146.02 17.93a.58.58 0 0 1-.136.192c-.054.049-.138.072-.25.072h-.796l1.115-2.423-2.519-5.75h.928c.092 0 .165.022.217.069.052.046.09.097.114.154l1.634 3.845c.036.089.067.178.093.266.026.088.049.179.07.271.027-.092.056-.182.084-.271.028-.088.06-.179.097-.272l1.585-3.84a.343.343 0 0 1 .313-.222h.856l-3.405 7.908z" fill="#000"/>
    </g>
    <defs>
        <clipPath id="4n4dh558sa">
            <path fill="#fff" d="M0 0h204.574v60H0z"/>
        </clipPath>
    </defs>
</svg>
